KRSPY-parametric-WideBlackMaxGrade.ufo
<glyph name="two" format="2">
  <advance width="5487"/>
  <unicode hex="0032"/>
  <outline>
    <contour>
      <point x="169" y="0" type="line"/>
      <point x="5317" y="0" type="line" identifier="pzdvPTirLJ"/>
      <point x="5317" y="316" type="line" identifier="91SxUS0iwG"/>
      <point x="4507" y="316" type="line" identifier="fP7EN0pUcl"/>
      <point x="4507" y="448" type="line" identifier="eb458Bdvng"/>
      <point x="1017" y="448" type="line"/>
      <point x="1017" y="684" type="line" identifier="9fjc25rkUx"/>
      <point x="5311" y="782" type="line" identifier="yyb1NCCI5w"/>
      <point x="5311" y="1600" type="line" identifier="5FogYRSgkk"/>
      <point x="173" y="1600" type="line" identifier="svlFvrau4c"/>
      <point x="173" y="1217" type="line" identifier="LQ9fBsTy9K"/>
      <point x="983" y="1217" type="line" identifier="jS6EyIAKtm"/>
      <point x="983" y="1153" type="line"/>
      <point x="4463" y="1153" type="line" identifier="N6CMAjhNlU"/>
      <point x="4463" y="804" type="line" identifier="yK1d5IcluK"/>
      <point x="169" y="704" type="line" identifier="teVKnpBcVb"/>
    </contour>
  </outline>
</glyph>
<glyph name="three" format="2">
  <advance width="5504.215188161134"/>
  <unicode hex="0033"/>
  <outline>
    <contour>
      <point x="230.07480152825497" y="0.0" type="line" identifier="O9abUc1nmN"/>
      <point x="5274.19143768393" y="0.0" type="line" identifier="kMJYMTfXCq"/>
      <point x="5274.19143768393" y="894.9451433415398" type="line" identifier="su2XmdS8e8"/>
      <point x="4768.333213092973" y="894.9451433415398" type="line" identifier="JQaOzDQqlF"/>
      <point x="4768.333213092973" y="779.5124584043504" type="line"/>
      <point x="5263.701536371206" y="1081.210156102048" type="line" identifier="S91TzLL02W"/>
      <point x="5263.701536371206" y="1600.0" type="line" identifier="xg8x2Ki40p"/>
      <point x="254.3740647554461" y="1600.0" type="line" identifier="pE1XSRiy68"/>
      <point x="254.3740647554461" y="1028.2344777209642" type="line" identifier="5lNstGRcSF"/>
      <point x="1021.3596268941614" y="1028.2344777209642" type="line" identifier="AcE5xKDZfE"/>
      <point x="1021.3596268941614" y="1036.7600032464898" type="line" identifier="7ogBYufWpl"/>
      <point x="4104.201622042463" y="1036.7600032464898" type="line" identifier="RHLvSX2Jv6"/>
      <point x="4104.201622042463" y="1039.943700457214" type="line" identifier="YUjTrmoWd9"/>
      <point x="3979.8269951633315" y="963.8901123345566" type="line"/>
      <point x="3979.8269951633315" y="963.6000324648974" type="line" identifier="iic1IBkDqp"/>
      <point x="1715.690218747276" y="963.6000324648974" type="line" identifier="lRLJEhXMlO"/>
      <point x="1715.690218747276" y="632.7220734247762" type="line" identifier="8aKgEELrVU"/>
      <point x="4328.304776247719" y="632.7220734247762" type="line" identifier="Dm8zjmbhNr"/>
      <point x="4328.304776247719" y="562.7540152765378" type="line" identifier="xv9CFHiFgB"/>
      <point x="997.0014699384068" y="562.7540152765378" type="line" identifier="YajKQV3MHP"/>
      <point x="997.0014699384068" y="568.9577144712281" type="line" identifier="36SchVkwze"/>
      <point x="230.07480152825497" y="568.9577144712281" type="line" identifier="tVui9PiOjA"/>
    </contour>
  </outline>
</glyph>
<glyph name="four" format="2">
  <advance width="5500"/>
  <unicode hex="0034"/>
  <outline>
    <contour>
      <point x="4100" y="0" type="line"/>
      <point x="4918" y="0" type="line"/>
      <point x="4918" y="546" type="line"/>
      <point x="5408" y="546" type="line"/>
      <point x="5408" y="993" type="line"/>
      <point x="4918" y="993" type="line"/>
      <point x="4918" y="1600" type="line"/>
      <point x="4100" y="1600" type="line"/>
      <point x="4100" y="993" type="line"/>
      <point x="986" y="993" type="line"/>
      <point x="986" y="1251" type="line"/>
      <point x="1527" y="1680" type="line"/>
      <point x="725" y="1680" type="line"/>
      <point x="168" y="1251" type="line"/>
      <point x="168" y="546" type="line"/>
      <point x="4100" y="546" type="line"/>
    </contour>
  </outline>
</glyph>
<glyph name="six" format="2">
  <advance width="5488"/>
  <unicode hex="0036"/>
  <outline>
    <contour>
      <point x="168" y="0" type="line" identifier="uiw6aBUf4P"/>
      <point x="5318" y="0" type="line" identifier="jtYkxiUX6G"/>
      <point x="5318" y="926" type="line" identifier="2G5L37c87I"/>
      <point x="987" y="926" type="line"/>
      <point x="987" y="877" type="line"/>
      <point x="1426" y="1151" type="line"/>
      <point x="4507" y="1151" type="line"/>
      <point x="4507" y="1236" type="line"/>
      <point x="5315" y="1236" type="line" identifier="Wuidbv6mUe"/>
      <point x="5315" y="1600" type="line" identifier="oGvEEuxnYv"/>
      <point x="655" y="1600" type="line" identifier="xR3pEHbMJx"/>
      <point x="168" y="897" type="line" identifier="KnMArb0tv8"/>
    </contour>
    <contour>
      <point x="4499" y="564" type="line"/>
      <point x="4499" y="446" type="line"/>
      <point x="987" y="446" type="line"/>
      <point x="987" y="564" type="line"/>
    </contour>
  </outline>
</glyph>
<glyph name="nine" format="2">
  <advance width="5503.860999137276"/>
  <unicode hex="0039"/>
  <outline>
    <contour>
      <point x="5273.990401813225" y="1600.0" type="line" identifier="uiw6aBUf4P"/>
      <point x="230.6696275855435" y="1600.0" type="line" identifier="jtYkxiUX6G"/>
      <point x="230.6696275855435" y="618.2663474285096" type="line" identifier="2G5L37c87I"/>
      <point x="4328.103740377013" y="618.2663474285096" type="line"/>
      <point x="4328.103740377013" y="553.7204772339908" type="line"/>
      <point x="997.7972657342026" y="553.7204772339908" type="line"/>
      <point x="997.7972657342026" y="479.2229887545203" type="line"/>
      <point x="230.87059732405078" y="479.2229887545203" type="line" identifier="Wuidbv6mUe"/>
      <point x="230.87059732405078" y="0.0" type="line" identifier="oGvEEuxnYv"/>
      <point x="5273.990401813225" y="0.0" type="line" identifier="xR3pEHbMJx"/>
    </contour>
    <contour>
      <point x="1174.7628799971142" y="970.6818620422224" type="line"/>
      <point x="1174.7628799971142" y="1028.212446680915" type="line"/>
      <point x="4328.103740377013" y="1028.212446680915" type="line"/>
      <point x="4328.103740377013" y="970.6818620422224" type="line"/>
    </contour>
  </outline>
</glyph>
<glyph name="A" format="2">
  <advance width="5796.665052439827"/>
  <unicode hex="0041"/>
  <outline>
    <contour>
      <point x="338.005762519276" y="0.0" type="line" smooth="yes" identifier="jFq8ta4UUc"/>
      <point x="1282.0990149308466" y="0.0" type="line" smooth="yes" identifier="dQz4RxYhG4"/>
      <point x="1282.0990149308466" y="335.5966507047588" type="line" smooth="yes" identifier="viYRWe5UN7"/>
      <point x="4435.530734939143" y="335.5966507047588" type="line" smooth="yes" identifier="QVexAlbAcl"/>
      <point x="4435.530734939143" y="0.0" type="line" smooth="yes" identifier="ZgsCdxNJRW"/>
      <point x="5381.417396375355" y="0.0" type="line" smooth="yes" identifier="kpn4Kw9J0C"/>
      <point x="5381.417396375355" y="1600.0" type="line" smooth="yes" identifier="OBZ5Ayed7M"/>
      <point x="828.0478556634713" y="1600.0" type="line" smooth="yes" identifier="iDT0uyhKrn"/>
      <point x="338.005762519276" y="1090.8621835048261" type="line" smooth="yes" identifier="dqVr87m3uJ"/>
    </contour>
    <contour>
      <point x="1282.0990149308466" y="871.2500518536555" type="line" smooth="yes" identifier="IIRC9Wy7kQ"/>
      <point x="1282.0990149308466" y="832.4441017594171" type="line" smooth="yes" identifier="VufvPdJ075"/>
      <point x="1462.486342198054" y="1001.1118325532739" type="line" smooth="yes" identifier="FsYtJ2vFnp"/>
      <point x="4435.530734939143" y="1001.1118325532739" type="line" smooth="yes" identifier="tUsW8L7b0y"/>
      <point x="4435.530734939143" y="871.2500518536555" type="line" smooth="yes" identifier="eTe9B4y76W"/>
    </contour>
  </outline>
</glyph>
<glyph name="B" format="2">
  <advance width="5442"/>
  <unicode hex="0042"/>
  <outline>
    <contour>
      <point x="139" y="0" type="line" identifier="hvY9r8RmLr"/>
      <point x="5290" y="0" type="line" identifier="9QFpw7nfq7"/>
      <point x="5290" y="357" type="line" identifier="543PerILpr"/>
      <point x="4841" y="799" type="line" identifier="zhomauHW30"/>
      <point x="4841" y="801" type="line" identifier="870ZhtaozS"/>
      <point x="5200" y="1235" type="line" identifier="eGKH52Jgnk"/>
      <point x="5200" y="1600" type="line" identifier="FaP204GrdB"/>
      <point x="139" y="1600" type="line" identifier="JEev70GAj6"/>
    </contour>
    <contour>
      <point x="958" y="993" type="line" identifier="By7dfMihfe"/>
      <point x="958" y="1155" type="line" identifier="1p5hKrurVy"/>
      <point x="4382" y="1155" type="line" identifier="Qby8aMtF2X"/>
      <point x="4382" y="1269" type="line" identifier="9lW01gQyU2"/>
      <point x="4118" y="993" type="line" identifier="xpxyvIzPoc"/>
    </contour>
    <contour>
      <point x="958" y="444" type="line" identifier="jaMSiLrCua"/>
      <point x="958" y="607" type="line" identifier="XSrxNd2axx"/>
      <point x="4109" y="607" type="line" identifier="VyYlzRh5nq"/>
      <point x="4472" y="324" type="line" identifier="lsRGatjQja"/>
      <point x="4472" y="444" type="line" identifier="xhlDJ3CjD5"/>
    </contour>
  </outline>
</glyph>
<glyph name="M" format="2">
  <advance width="5998.947277607938"/>
  <unicode hex="004D"/>
  <outline>
    <contour>
      <point x="2958.8961604246892" y="85.49348146945742" type="line" identifier="0Dn4Xpf57M"/>
      <point x="1386.7547216886555" y="874.6422999576151" type="line"/>
      <point x="1360.2442622802982" y="874.6422999576151" type="line"/>
      <point x="1360.2442622802982" y="0.0" type="line"/>
      <point x="415.24765606447284" y="0.0" type="line"/>
      <point x="415.24765606447284" y="1600.0" type="line"/>
      <point x="1415.404073743413" y="1600.0" type="line"/>
      <point x="2987.9996362729094" y="808.9072556039523" type="line"/>
      <point x="3010.057586114643" y="808.9072556039523" type="line" identifier="9aKZPM0HPh"/>
      <point x="4581.808688568449" y="1600.0" type="line"/>
      <point x="5583.699621543466" y="1600.0" type="line"/>
      <point x="5583.699621543466" y="0.0" type="line"/>
      <point x="4637.812960107254" y="0.0" type="line"/>
      <point x="4637.812960107254" y="874.6422999576151" type="line"/>
      <point x="4612.251449647846" y="874.6422999576151" type="line"/>
      <point x="3039.1610619628636" y="85.49348146945742" type="line" identifier="spdoeeCFft"/>
    </contour>
  </outline>
</glyph>
<glyph name="N" format="2">
  <advance width="4931.093195297401"/>
  <unicode hex="004E"/>
  <outline>
    <contour>
      <point x="415.24765606447284" y="0.0" type="line" identifier="CkwYPPvJLv"/>
      <point x="1359.3409084760435" y="0.0" type="line" identifier="oHTJsN7drZ"/>
      <point x="1359.3409084760435" y="938.6489191894598" type="line" identifier="wfBbYd10Pm"/>
      <point x="1374.9889318748178" y="938.6489191894598" type="line" identifier="MEnBDHq6zU"/>
      <point x="3559.348167987808" y="16.489540591642697" type="line" identifier="3Nbopwznvn"/>
      <point x="3563.7930753576397" y="0.0" type="line"/>
      <point x="4515.845539232926" y="0.0" type="line" identifier="uKfuudIUvA"/>
      <point x="4515.845539232926" y="1600.0" type="line" identifier="XRdLFXiM4t"/>
      <point x="3571.7522868213555" y="1600.0" type="line" identifier="MUSJPjCIXg"/>
      <point x="3571.7522868213555" y="696.7842917993067" type="line" identifier="VILP20cFmq"/>
      <point x="3559.0724959193426" y="678.4452109767425" type="line" identifier="z5b04GDwRN"/>
      <point x="1375.9514920325732" y="1600.0" type="line" identifier="LL64NQ6WBE"/>
      <point x="415.24765606447284" y="1600.0" type="line" identifier="dzUaaP1sjt"/>
    </contour>
  </outline>
</glyph>
<glyph name="O" format="2">
  <advance width="5494"/>
  <unicode hex="004F"/>
  <outline>
    <contour>
      <point x="5354" y="910" type="line" identifier="ob8US3C311"/>
      <point x="5354" y="1600" type="line" identifier="c9brEFyXXA"/>
      <point x="734" y="1600" type="line" identifier="a4Ql951bxG"/>
      <point x="137" y="688" type="line" identifier="kbL68Qh2zr"/>
      <point x="137" y="0" type="line" identifier="U6WibAQAUl"/>
      <point x="4757" y="0" type="line" identifier="dfgNHTgBfR"/>
    </contour>
    <contour>
      <point x="4535" y="1022" type="line" identifier="SnrsQD5TLy"/>
      <point x="4075" y="453" type="line" identifier="jjd5iRDXWT"/>
      <point x="956" y="453" type="line" identifier="YbQKHpAtYn"/>
      <point x="956" y="581" type="line" identifier="vdfGLkskOQ"/>
      <point x="1416" y="1147" type="line" identifier="qXlVxK5ShE"/>
      <point x="4535" y="1147" type="line" identifier="g70r2r6DwY"/>
    </contour>
  </outline>
</glyph>
<glyph name="P" format="2">
  <advance width="5545.289848406965"/>
  <unicode hex="0050"/>
  <outline>
    <contour>
      <point x="415.24765606447284" y="0.0" type="line" identifier="EG08jqU5fb"/>
      <point x="1359.3409084760435" y="0.0" type="line" identifier="osRzIFK2Cu"/>
      <point x="1359.3409084760435" y="263.0366492618744" type="line" identifier="hIFVovVRwe"/>
      <point x="5429.291399507615" y="392.5427679932185" type="line" identifier="Tt6D8zYZmU"/>
      <point x="5429.291399507615" y="1600.0" type="line" identifier="6xW04auDFu"/>
      <point x="415.24765606447284" y="1600.0" type="line" identifier="eETO5GBD5v"/>
    </contour>
    <contour>
      <point x="1359.3409084760435" y="752.4131789447104" type="line" identifier="PIBVN1PGv1"/>
      <point x="1359.3409084760435" y="1001.1118325532739" type="line" identifier="IZIZQr2gYJ"/>
      <point x="4483.404738071405" y="1001.1118325532739" type="line" identifier="2c4LCF1E1R"/>
      <point x="4483.404738071405" y="818.2798654510366" type="line" identifier="1WCnzth1GX"/>
    </contour>
  </outline>
</glyph>
<glyph name="R" format="2">
  <advance width="5497"/>
  <unicode hex="0052"/>
  <outline>
    <contour>
      <point x="958" y="923" type="line"/>
      <point x="958" y="1150" type="line"/>
      <point x="4536" y="1150" type="line"/>
      <point x="4536" y="1179" type="line"/>
      <point x="4179" y="923" type="line"/>
    </contour>
    <contour>
      <point x="5358" y="0" type="line"/>
      <point x="5358" y="260" type="line"/>
      <point x="4909" y="701" type="line"/>
      <point x="4909" y="703" type="line"/>
      <point x="5355" y="1138" type="line"/>
      <point x="5354" y="1600" type="line"/>
      <point x="139" y="1600" type="line"/>
      <point x="139" y="0" type="line"/>
      <point x="958" y="0" type="line"/>
      <point x="958" y="479" type="line"/>
      <point x="4179" y="479" type="line"/>
      <point x="4539" y="215" type="line"/>
      <point x="4539" y="0" type="line"/>
    </contour>
  </outline>
</glyph>
<glyph name="S" format="2">
  <advance width="5445"/>
  <unicode hex="0053"/>
  <outline>
    <contour>
      <point x="133" y="0" type="line" identifier="09VlJ0BjUX"/>
      <point x="5321" y="0" type="line" identifier="EagWihqFM8"/>
      <point x="5321" y="1009" type="line" identifier="KfNuQA7eZe"/>
      <point x="970" y="1009" type="line" identifier="At364YZFEy"/>
      <point x="970" y="1179" type="line" identifier="BcuLfvaQKC"/>
      <point x="4511" y="1179" type="line" identifier="3ZUkG35meB"/>
      <point x="4511" y="1290" type="line" identifier="DTOJhFIl15"/>
      <point x="5320" y="1290" type="line" identifier="9KDcrfQ5Ui"/>
      <point x="5320" y="1600" type="line" identifier="SaF9ojRFrW"/>
      <point x="151" y="1600" type="line" identifier="F4sQEYelA8"/>
      <point x="151" y="616" type="line" identifier="3sQ8t8BZ6b"/>
      <point x="4503" y="616" type="line" identifier="yiV6OCBLHg"/>
      <point x="4503" y="448" type="line" identifier="9kdl9SYsn8"/>
      <point x="942" y="448" type="line" identifier="yZDWuX8LLe"/>
      <point x="942" y="323" type="line" identifier="jYb9001DTm"/>
      <point x="133" y="323" type="line" identifier="ho4DrS0rdW"/>
    </contour>
  </outline>
</glyph>
<glyph name="U" format="2">
  <advance width="5490"/>
  <unicode hex="0055"/>
  <outline>
    <contour>
      <point x="4503" y="1600" type="line" smooth="yes"/>
      <point x="4503" y="450" type="line"/>
      <point x="1455" y="450" type="line" smooth="yes"/>
      <point x="992" y="780" type="line" smooth="yes"/>
      <point x="992" y="1600" type="line"/>
      <point x="173" y="1600" type="line" smooth="yes"/>
      <point x="173" y="757" type="line" smooth="yes"/>
      <point x="757" y="0" type="line" smooth="yes"/>
      <point x="5321" y="0" type="line" smooth="yes"/>
      <point x="5321" y="1600" type="line" smooth="yes"/>
    </contour>
  </outline>
</glyph>
<glyph name="V" format="2">
  <advance width="5490"/>
  <unicode hex="0056"/>
  <outline>
    <contour>
      <point x="981" y="1600" type="line" smooth="yes"/>
      <point x="981" y="450" type="line"/>
      <point x="4025" y="450" type="line" smooth="yes"/>
      <point x="4492" y="785" type="line" smooth="yes"/>
      <point x="4492" y="1600" type="line"/>
      <point x="5311" y="1600" type="line" smooth="yes"/>
      <point x="5311" y="757" type="line" smooth="yes"/>
      <point x="4719" y="0" type="line" smooth="yes"/>
      <point x="163" y="0" type="line" smooth="yes"/>
      <point x="163" y="1600" type="line" smooth="yes"/>
    </contour>
  </outline>
</glyph>
<glyph name="W" format="2">
  <advance width="7823"/>
  <unicode hex="0057"/>
  <outline>
    <contour>
      <point x="1357" y="1600" type="line" smooth="yes" identifier="12Pyby1xY2"/>
      <point x="538" y="1600" type="line" smooth="yes" identifier="5LJg4ajoG6"/>
      <point x="538" y="0" type="line" smooth="yes" identifier="ZqTZqAY3uY"/>
      <point x="3678" y="0" type="line" smooth="yes" identifier="rCeQLyjlsN"/>
      <point x="3898" y="258" type="line"/>
      <point x="3917" y="258" type="line"/>
      <point x="4132" y="0" type="line" smooth="yes" identifier="Pkl7cZ37MU"/>
      <point x="6698" y="0" type="line" smooth="yes" identifier="R4lklfJsHA"/>
      <point x="7299" y="739" type="line" smooth="yes" identifier="7g7f8Wu7K4"/>
      <point x="7299" y="1600" type="line" smooth="yes" identifier="RTOJW56qXy"/>
      <point x="6480" y="1600" type="line" identifier="JfSFAkWGZC"/>
      <point x="6480" y="776" type="line" smooth="yes" identifier="WWvGwSpq0g"/>
      <point x="6000" y="450" type="line" smooth="yes" identifier="oee4nqI8Wl"/>
      <point x="4485" y="450" type="line" identifier="Ljn2lpvpG8"/>
      <point x="4299" y="644" type="line"/>
      <point x="4300" y="1055" type="line" smooth="yes"/>
      <point x="3539" y="1055" type="line"/>
      <point x="3538" y="689" type="line"/>
      <point x="3538" y="650" type="line"/>
      <point x="3343" y="450" type="line" identifier="GlWB6PG54Z"/>
      <point x="1357" y="450" type="line" identifier="iqeTRv7HXg"/>
    </contour>
  </outline>
</glyph>
<glyph name="Z" format="2">
  <advance width="5488"/>
  <unicode hex="005A"/>
  <outline>
    <contour>
      <point x="169" y="0" type="line"/>
      <point x="5319" y="0" type="line" identifier="pzdvPTirLJ"/>
      <point x="5319" y="686" type="line" identifier="91SxUS0iwG"/>
      <point x="4509" y="686" type="line"/>
      <point x="4509" y="450" type="line"/>
      <point x="1017" y="450" type="line"/>
      <point x="1017" y="750" type="line"/>
      <point x="5327" y="971" type="line" identifier="yyb1NCCI5w"/>
      <point x="5327" y="1600" type="line" identifier="5FogYRSgkk"/>
      <point x="173" y="1600" type="line" identifier="svlFvrau4c"/>
      <point x="173" y="979" type="line" identifier="LQ9fBsTy9K"/>
      <point x="902" y="979" type="line"/>
      <point x="902" y="1150" type="line"/>
      <point x="4473" y="1150" type="line"/>
      <point x="4473" y="961" type="line"/>
      <point x="169" y="757" type="line" identifier="teVKnpBcVb"/>
    </contour>
  </outline>
</glyph>
<glyph name="C.wide" format="2">
  <advance width="5304"/>
  <outline>
    <contour>
      <point x="144" y="0" type="line" identifier="7lPhzTnk2Z"/>
      <point x="5145" y="0" type="line" identifier="qJVLZGnkwh"/>
      <point x="5145" y="450" type="line" identifier="Y750RHTvDj"/>
      <point x="962" y="450" type="line" identifier="L2LsGnXiZ2"/>
      <point x="962" y="753" type="line" identifier="sUWsr03vF4"/>
      <point x="1438" y="1150" type="line" identifier="dbOUe6OhxL"/>
      <point x="5144" y="1150" type="line" identifier="5BjRbcud80"/>
      <point x="5144" y="1600" type="line" identifier="9eJelv8BOw"/>
      <point x="728" y="1600" type="line" identifier="lfZev3ICaC"/>
      <point x="144" y="819" type="line" identifier="V1EWIdPahq"/>
    </contour>
  </outline>
</glyph>
<glyph name="E.wide" format="2">
  <advance width="5435"/>
  <outline>
    <contour>
      <point x="171" y="0" type="line" identifier="fZynkQ4XHB"/>
      <point x="5168" y="0" type="line" identifier="FAQNpgUPxV"/>
      <point x="5168" y="429" type="line" identifier="5cgTYOhATF"/>
      <point x="989" y="429" type="line" identifier="bWs42DaCgU"/>
      <point x="989" y="600" type="line" identifier="VtD2aADJmn"/>
      <point x="5015" y="600" type="line" identifier="PpbsFdHAnS"/>
      <point x="5015" y="1001" type="line" identifier="8WuC5p8Ax5"/>
      <point x="989" y="1001" type="line" identifier="m39IWn9ntA"/>
      <point x="989" y="1180" type="line" identifier="gQ21I4SHQg"/>
      <point x="5167" y="1180" type="line" identifier="eqNb2VTwYs"/>
      <point x="5167" y="1600" type="line" identifier="qYRmo14Il5"/>
      <point x="171" y="1600" type="line" identifier="HmJIcnLWfC"/>
    </contour>
  </outline>
</glyph>
<glyph name="F.wide" format="2">
  <advance width="4840.920734548363"/>
  <outline>
    <contour>
      <point x="415.24765606447284" y="0.0" type="line" identifier="oAgH2tA6DJ"/>
      <point x="1359.3409084760435" y="0.0" type="line" identifier="zCZyMcW5ho"/>
      <point x="1359.3409084760435" y="337.96366636907175" type="line" identifier="yHYqkMd7LI"/>
      <point x="4490.428611794978" y="337.96366636907175" type="line" identifier="NmB7yyQuio"/>
      <point x="4490.428611794978" y="853.7432838243649" type="line" identifier="wQk2C8zPHh"/>
      <point x="1359.3409084760435" y="853.7432838243649" type="line" identifier="4cFHKQfHDt"/>
      <point x="1359.3409084760435" y="999.3051249447644" type="line" identifier="ZvzwyrcwpS"/>
      <point x="4724.922285649012" y="999.3051249447644" type="line" identifier="4E754ovOIe"/>
      <point x="4724.922285649012" y="1600.0" type="line" identifier="NUrIjqOB7J"/>
      <point x="415.24765606447284" y="1600.0" type="line" identifier="TBAYuCfUFX"/>
    </contour>
  </outline>
</glyph>
<glyph name="G.wide" format="2">
  <advance width="5446"/>
  <outline>
    <contour>
      <point x="141" y="0" type="line" identifier="7lPhzTnk2Z"/>
      <point x="5287" y="0" type="line" identifier="qJVLZGnkwh"/>
      <point x="5287" y="901" type="line" identifier="uek1NNj7De"/>
      <point x="3232" y="901" type="line" identifier="qcvimxjndX"/>
      <point x="3232" y="546" type="line" identifier="EARaY3Su65"/>
      <point x="4476" y="546" type="line" identifier="4m6dHLVhZq"/>
      <point x="4476" y="447" type="line" identifier="Y750RHTvDj"/>
      <point x="960" y="447" type="line" identifier="L2LsGnXiZ2"/>
      <point x="960" y="820" type="line" identifier="sUWsr03vF4"/>
      <point x="1412" y="1152" type="line" identifier="dbOUe6OhxL"/>
      <point x="5288" y="1152" type="line" identifier="5BjRbcud80"/>
      <point x="5288" y="1600" type="line" identifier="9eJelv8BOw"/>
      <point x="671" y="1600" type="line" identifier="lfZev3ICaC"/>
      <point x="141" y="855" type="line" identifier="V1EWIdPahq"/>
    </contour>
  </outline>
</glyph>
<glyph name="K.alt" format="2">
  <advance width="5462"/>
  <outline>
    <contour>
      <point x="958" y="0" type="line" identifier="wmNm7XZsaF"/>
      <point x="958" y="573" type="line" identifier="O22liaP9Qk"/>
      <point x="4082" y="573" type="line" identifier="ELFBWIb1vd"/>
      <point x="4472" y="269" type="line" identifier="DzXo67YEfw"/>
      <point x="4472" y="0" type="line" identifier="aKpYWD78l2"/>
      <point x="5290" y="0" type="line" identifier="ChS7KlqGi6"/>
      <point x="5290" y="315" type="line" identifier="sWLgkU8Vey"/>
      <point x="4808" y="799" type="line" identifier="Of0iQc0wBG"/>
      <point x="4808" y="801" type="line" identifier="j4jnmtDJYB"/>
      <point x="5260" y="1600" type="line" identifier="dMJ1ywOKQQ"/>
      <point x="4477" y="1600" type="line" identifier="08OWjR2YBJ"/>
      <point x="4101" y="1026" type="line" identifier="g4YLdZEoM3"/>
      <point x="958" y="1026" type="line" identifier="uZuki3Isec"/>
      <point x="958" y="1600" type="line" identifier="nRfcNgqJ4H"/>
      <point x="139" y="1600" type="line" identifier="3XJlWt89ad"/>
      <point x="139" y="0" type="line" identifier="wdbO8kCovY"/>
    </contour>
  </outline>
</glyph>
<glyph name="N.wide" format="2">
  <advance width="6021"/>
  <outline>
    <contour>
      <point x="267" y="0" type="line" identifier="CkwYPPvJLv"/>
      <point x="1085" y="0" type="line" identifier="oHTJsN7drZ"/>
      <point x="1085" y="995" type="line" identifier="wfBbYd10Pm"/>
      <point x="1098" y="995" type="line" identifier="MEnBDHq6zU"/>
      <point x="5059" y="0" type="line" identifier="3Nbopwznvn"/>
      <point x="5858" y="0" type="line" identifier="uKfuudIUvA"/>
      <point x="5858" y="1600" type="line" identifier="XRdLFXiM4t"/>
      <point x="5039" y="1600" type="line" identifier="MUSJPjCIXg"/>
      <point x="5039" y="656" type="line" identifier="VILP20cFmq"/>
      <point x="5047" y="656" type="line" identifier="z5b04GDwRN"/>
      <point x="1114" y="1600" type="line" identifier="LL64NQ6WBE"/>
      <point x="267" y="1600" type="line" identifier="dzUaaP1sjt"/>
    </contour>
  </outline>
</glyph>
<glyph name="R.alt" format="2">
  <advance width="5506.551611671732"/>
  <outline>
    <contour>
      <point x="1210.52295538782" y="893.1230720209699" type="line"/>
      <point x="1208.7162477793106" y="1002.0018877736595" type="line"/>
      <point x="4292.403821238656" y="1002.0018877736595" type="line"/>
      <point x="4293.307175042911" y="893.1230720209699" type="line"/>
    </contour>
    <contour>
      <point x="5240.5708531354185" y="0.8900552203855507" type="line"/>
      <point x="4578.595661727794" y="563.0384047711376" type="line"/>
      <point x="5288.891594297" y="565.9542936329723" type="line"/>
      <point x="5237.400427454481" y="1600.8900552203856" type="line"/>
      <point x="264.6229953677401" y="1600.8900552203856" type="line"/>
      <point x="264.6229953677401" y="0.8900552203855507" type="line"/>
      <point x="1209.6196015835653" y="0.8900552203855507" type="line"/>
      <point x="1209.6196015835653" y="388.1837002167332" type="line"/>
      <point x="3735.445105766427" y="388.0879347816285" type="line"/>
      <point x="4299.404864323784" y="0.8900552203855507" type="line"/>
    </contour>
  </outline>
</glyph>
<glyph name="Z.wide" format="2">
  <advance width="5265.08941975008"/>
  <outline>
    <contour>
      <point x="101.6426276125976" y="0.0" type="line"/>
      <point x="5148.459194930667" y="0.0" type="line" identifier="pzdvPTirLJ"/>
      <point x="5148.459194930667" y="597.9848136424713" type="line"/>
      <point x="1153.445860274689" y="597.9848136424713" type="line"/>
      <point x="1153.445860274689" y="565.5468711955198" type="line"/>
      <point x="5137.120595069545" y="634.963930897865" type="line" identifier="yyb1NCCI5w"/>
      <point x="5137.120595069545" y="1600.0" type="line" identifier="5FogYRSgkk"/>
      <point x="121.57971184397611" y="1600.0" type="line" identifier="svlFvrau4c"/>
      <point x="121.57971184397611" y="1002.0151863575286" type="line"/>
      <point x="3970.305846386928" y="1002.0151863575286" type="line"/>
      <point x="3970.305846386928" y="1002.6442177913648" type="line"/>
      <point x="101.6426276125976" y="962.7368449530613" type="line" identifier="teVKnpBcVb"/>
    </contour>
  </outline>
</glyph>
